<svg focusable="false" viewBox="0 0 511.999 511.999" aria-hidden="true" width= '100'height="100">
  <circle cx="255.999" cy="255.999" r="255.999" fill="#D6D6D6"></circle>
  <path fill="#535B70" d="M450.344 24.869V422.64c-46.947 54.7-116.6 89.359-194.34 89.359S108.611 477.34 61.664 422.64V24.869C61.663 11.139 72.792 0 86.532 0h338.943c13.73 0 24.869 11.139 24.869 24.869z"></path>
  <path fill="#E8E8E8" d="M430.752 85.462v357.605c-3.197 2.988-6.468 5.893-9.812 8.704-42.674 35.997-97.28 58.295-157.027 60.102-2.623.084-5.266.125-7.91.125-2.654 0-5.287-.042-7.92-.125-59.747-1.808-114.353-24.106-157.016-60.102-3.344-2.811-6.614-5.716-9.812-8.704V85.462c0-8.192 6.635-14.827 14.827-14.827h319.843c.899 0 1.776.084 2.623.24 6.938 1.233 12.204 7.294 12.204 14.587z"></path>
  <path fill="#42495B" d="M321.828 45.554h-131.65c-6.059 0-10.97-4.912-10.97-10.97 0-6.059 4.912-10.97 10.97-10.97h131.65c6.059 0 10.97 4.912 10.97 10.97.001 6.058-4.911 10.97-10.97 10.97z"></path>
  <path fill="#4ACC9A" d="M238.376 261.279H100.778c-5.365 0-9.714-4.349-9.714-9.714V113.967c0-5.365 4.349-9.714 9.714-9.714h137.598c5.365 0 9.714 4.349 9.714 9.714v137.598c.001 5.365-4.348 9.714-9.714 9.714z"></path>
  <path fill="#F44E72" d="M411.225 321.82H273.627c-5.365 0-9.714-4.349-9.714-9.714V113.967c0-5.365 4.349-9.714 9.714-9.714h137.598c5.365 0 9.714 4.349 9.714 9.714v198.138c0 5.366-4.349 9.715-9.714 9.715z"></path>
  <path fill="#51B0E0" d="M420.94 345.066v106.705c-42.674 35.997-97.28 58.295-157.027 60.102V345.066c0-5.371 4.347-9.718 9.707-9.718h137.613c5.361.001 9.707 4.348 9.707 9.718z"></path>
  <path fill="#FFCF4B" d="M238.376 402.511H100.778c-5.365 0-9.714-4.349-9.714-9.714V285.468c0-5.365 4.349-9.714 9.714-9.714h137.598c5.365 0 9.714 4.349 9.714 9.714v107.329c.001 5.365-4.348 9.714-9.714 9.714z"></path>
  <g transform="matrix(0.72164268,0,0,0.66751509,83.437214,133.01593)" fill= 'rgb(83, 91, 112)' stroke= 'rgb(255, 255, 255)' strokeWidth= '14.2'>
    <g fill= 'rgb(83, 91, 112)' stroke= 'rgb(255, 255, 255)' strokeWidth= '14.2'>
      <path d="m 309.43,219.944 c -19,-10.5 -39.2,-18.5 -59.2,-26.8 -11.6,-4.8 -22.7,-10.4 -32.5,-18.2 -19.3,-15.4 -15.6,-40.4 7,-50.3 6.4,-2.8 13.1,-3.7 19.9,-4.1 26.2,-1.4 51.1,3.4 74.8,14.8 11.8,5.7 15.7,3.9 19.7,-8.4 4.2,-13 7.7,-26.2 11.6,-39.3 2.6,-8.8 -0.6,-14.6 -8.9,-18.3 -15.2,-6.7 -30.8,-11.5 -47.2,-14.1 -21.4,-3.3 -21.4,-3.4 -21.5,-24.9 -0.1,-30.3 -0.1,-30.3 -30.5,-30.3 -4.4,0 -8.8,-0.1 -13.2,0 -14.2,0.4 -16.6,2.9 -17,17.2 -0.2,6.4 0,12.8 -0.1,19.3 -0.1,19 -0.2,18.7 -18.4,25.3 -44,16 -71.2,46 -74.1,94 -2.6,42.5 19.6,71.2 54.5,92.1 21.5,12.9 45.3,20.5 68.1,30.6 8.9,3.9 17.4,8.4 24.8,14.6 21.9,18.1 17.9,48.2 -8.1,59.6 -13.9,6.1 -28.6,7.6 -43.7,5.7 -23.3,-2.9 -45.6,-9 -66.6,-19.9 -12.3,-6.4 -15.9,-4.7 -20.1,8.6 -3.6,11.5 -6.8,23.1 -10,34.7 -4.3,15.6 -2.7,19.3 12.2,26.6 19,9.2 39.3,13.9 60,17.2 16.2,2.6 16.7,3.3 16.9,20.1 0.1,7.6 0.1,15.3 0.2,22.9 0.1,9.6 4.7,15.2 14.6,15.4 11.2,0.2 22.5,0.2 33.7,-0.1 9.2,-0.2 13.9,-5.2 13.9,-14.5 0,-10.4 0.5,-20.9 0.1,-31.3 -0.5,-10.6 4.1,-16 14.3,-18.8 23.5,-6.4 43.5,-19 58.9,-37.8 42.8,-52 26.5,-128.1 -34.1,-161.6 z" fill= 'rgb(83, 91, 112)' stroke= 'rgb(255, 255, 255)' strokeWidth= '14.2'></path>
    </g>
  </g>
</svg>
